<?xml version="1.0" encoding="utf-8"?>
<!-- Generator: Adobe Illustrator 17.0.0, SVG Export Plug-In . SVG Version: 6.00 Build 0)  -->
<!DOCTYPE svg PUBLIC "-//W3C//DTD SVG 1.1//EN" "http://www.w3.org/Graphics/SVG/1.1/DTD/svg11.dtd" [
	<!ENTITY ns_extend "http://ns.adobe.com/Extensibility/1.0/">
	<!ENTITY ns_ai "http://ns.adobe.com/AdobeIllustrator/10.0/">
	<!ENTITY ns_graphs "http://ns.adobe.com/Graphs/1.0/">
	<!ENTITY ns_vars "http://ns.adobe.com/Variables/1.0/">
	<!ENTITY ns_imrep "http://ns.adobe.com/ImageReplacement/1.0/">
	<!ENTITY ns_sfw "http://ns.adobe.com/SaveForWeb/1.0/">
	<!ENTITY ns_custom "http://ns.adobe.com/GenericCustomNamespace/1.0/">
	<!ENTITY ns_adobe_xpath "http://ns.adobe.com/XPath/1.0/">
]>
<svg version="1.1" id="Layer_1" xmlns:x="&ns_extend;" xmlns:i="&ns_ai;" xmlns:graph="&ns_graphs;"
	 xmlns="http://www.w3.org/2000/svg" xmlns:xlink="http://www.w3.org/1999/xlink" x="0px" y="0px" width="120px" height="47.5px"
	 viewBox="191.6 76.1 120 47.5" enable-background="new 191.6 76.1 120 47.5" xml:space="preserve">
<metadata>
	<sfw  xmlns="&ns_sfw;">
		<slices></slices>
		<sliceSourceBounds  width="120" height="47.5" bottomLeftOrigin="true" y="476.7" x="439.6"></sliceSourceBounds>
	</sfw>
</metadata>
<g>
	<g>
		
			<linearGradient id="SVGID_1_" gradientUnits="userSpaceOnUse" x1="-209.9173" y1="725.9854" x2="-188.6684" y2="725.9854" gradientTransform="matrix(1 0 0 1 405 -641.6)">
			<stop  offset="0" style="stop-color:#006A9F"/>
			<stop  offset="1" style="stop-color:#00E7F4"/>
		</linearGradient>
		<path fill="url(#SVGID_1_)" d="M195.6,92.7C195.6,92.7,195.7,92.7,195.6,92.7c0.4,0,0.6-0.2,0.7-0.5c0-0.1,2.2-14.9,9.5-14.9
			c7.4,0,9.3,14.8,9.3,14.9c0,0.3,0.3,0.6,0.7,0.5c0.3,0,0.6-0.3,0.5-0.7c0-0.2-0.5-4-2-7.9c-2-5.3-5-8.1-8.5-8.1
			c-3.5,0-6.5,2.8-8.6,8.1c-1.6,3.9-2.1,7.7-2.1,7.9C195.1,92.4,195.3,92.7,195.6,92.7z"/>
		
			<linearGradient id="SVGID_2_" gradientUnits="userSpaceOnUse" x1="-210.7753" y1="758.6678" x2="-184.2771" y2="732.1697" gradientTransform="matrix(1 0 0 1 405 -641.6)">
			<stop  offset="0" style="stop-color:#862274"/>
			<stop  offset="0.6886" style="stop-color:#FF4E20"/>
		</linearGradient>
		<path fill="url(#SVGID_2_)" d="M219.8,89.7h-3.6c0.1,0.5,0.2,1.1,0.3,1.6c0.3,0.2,0.5,0.5,0.5,0.9c0,0.7-0.6,1.3-1.3,1.3
			s-1.3-0.6-1.3-1.3c0-0.3,0.1-0.5,0.2-0.6c-0.1-0.5-0.2-1.1-0.4-1.8h-4.7c0.4,5.7,1,16.3,1,19.3c-0.6,0.3-1.1,0.4-1.6,0.4
			c-1.7,0-2.8-0.6-3.4-1.9c-0.5-1.2-0.8-3.4-0.8-6.8c0-1.1,0-1.7,0-1.8c0,0,0,0,0,0c0.1-4.3,0.2-7.4,0.2-9.2h-7.8
			c-0.2,0.7-0.3,1.4-0.4,1.9c0.1,0.2,0.2,0.4,0.2,0.6c0,0.7-0.6,1.3-1.3,1.3s-1.3-0.6-1.3-1.3c0-0.4,0.2-0.7,0.5-0.9
			c0.1-0.4,0.2-1.1,0.3-1.6h-3.6c0.1,3.8,0.4,8.2,0.8,13c0.4,5.2,0.9,8.7,1.4,10.6c0.8,3.4,2.2,5.8,4.2,7.4
			c2.4,1.9,5.8,2.8,10.3,2.8c3.7,0,8-0.7,11.5-2.1C219.8,113.5,219.8,89.7,219.8,89.7z"/>
	</g>
	<path fill="#FFFFFF" d="M228.9,106.1l0.1,0.1c1.7,2.1,3.4,5.2,5.2,9.3h0c0.2,0,0.7,0.1,1.3,0.1l4.8-0.1c-0.6-1.6-1.8-3.8-3.6-6.5
		c-1.8-2.7-2.8-4.3-3.1-4.7v0h0.2c2.2-0.1,3.8-1.2,4.8-3.2c0.7-1.2,1.1-2.4,1.1-3.6c0-0.1,0-0.2,0-0.4c-0.2-3-1.4-5.2-3.7-6.7
		c-1.2-0.8-2.5-1.2-3.9-1.3c-0.7-0.1-1.8-0.1-3.2-0.1s-3.7,0.2-6.6,0.7c0.3,1.7,0.4,6.4,0.4,14.3s0,11.7-0.1,11.7c0,0,0.2,0,0.5,0
		h1.9c2.1,0,3.4-0.1,4.1-0.4c-0.2-3.1-0.3-5.3-0.3-6.6C228.8,107.3,228.8,106.5,228.9,106.1z M227.9,99.3c-0.1-0.4-0.1-1.2-0.1-2.3
		c0-1.1,0-1.9,0-2.2c1-0.4,1.9-0.6,2.7-0.6c0.8,0,1.4,0.2,2,0.7c0.6,0.5,0.9,1.1,0.9,2c0,1.4-0.5,2.2-1.6,2.5
		c-0.5,0.1-1.1,0.1-1.7,0.1C229.5,99.4,228.8,99.4,227.9,99.3L227.9,99.3z"/>
	<path fill="#FFFFFF" d="M257.7,108.8c0-0.4,0-0.8,0-1.1c0-0.3-0.1-0.7-0.3-1.1c-0.2-0.4-0.3-0.7-0.4-0.9c-0.1-0.2-0.3-0.5-0.6-0.9
		c-0.3-0.4-0.5-0.7-0.6-0.8c-0.1-0.1-0.3-0.4-0.6-0.7c-0.3-0.4-0.4-0.7-0.3-0.9c1.2-2,1.8-3.9,1.8-5.6s-0.3-3.1-1-4.2
		c-0.6-1.1-1.5-1.9-2.5-2.5c-1-0.5-2.1-0.9-3.1-1c-1-0.1-2.1-0.2-3.4-0.2c-1.2,0-2.8,0.3-4.8,0.8l0,0c0,1.2,0,2.9,0,5l-0.1,12.6
		c0,3.7,0,6.3,0.1,8c0.1,0,0.4,0.1,0.8,0.1l2.6,0.1c1.3,0,2.3,0.1,2.8,0.1c2.3,0,4.2-0.2,5.5-0.7c0.7-0.2,1.3-0.6,1.8-1
		s0.9-0.9,1.2-1.6c0.4-0.7,0.6-1.3,0.7-2C257.7,109.8,257.7,109.3,257.7,108.8z M251.6,109.4c-0.2,0.2-0.5,0.4-0.8,0.6
		c-0.3,0.2-1,0.3-2,0.3l-1.4,0l-0.1,0c-0.4-0.5-0.5-1.3-0.5-2.1c0-0.9,0.1-1.9,0.5-3.1c0.1,0,0.5,0,1.3,0.1c0.7,0,1.3,0.1,1.6,0.2
		c0.7,0.2,1.2,0.6,1.6,1.3c0.2,0.5,0.3,1,0.3,1.5C252,108.6,251.9,109,251.6,109.4z M251.6,98.8c-0.4,0.8-1.4,1.2-2.9,1.2
		c-0.4,0-0.9,0-1.4-0.1c-0.1-0.4-0.2-1-0.2-1.8l0-2.5c0-0.2,0-0.3,0-0.3c0.4-0.2,0.8-0.3,1.3-0.3s1.1,0.1,1.9,0.2s1.3,0.6,1.6,1.3
		c0.1,0.2,0.1,0.5,0.1,0.8C252,97.7,251.9,98.2,251.6,98.8z"/>
	<path fill="#FFFFFF" d="M264.5,115.6l10.6-0.1c0.2-0.9,0.4-1.7,0.4-2.6c0-0.9,0-1.6-0.1-2.2v-0.1c-0.5,0-1,0-1.6,0l-8.2-0.2l0,0
		c-0.1-1-0.1-1.9-0.1-2.7s0-1.4,0.1-2c0.2-0.1,0.8-0.2,2-0.2c1.1,0,2-0.1,2.5-0.2l0.1-3.6c0-1,0-1.5-0.1-1.6v0c-1.7,0-3.2,0-4.6-0.1
		c-0.1-0.1-0.2-0.5-0.2-1.1l0.1-3.2l0,0h0.1c0.9,0,2.1-0.1,3.5-0.1h1.9c1.8,0,3.2-0.1,4.3-0.4v0l0.1-3.6c0-0.6,0-1.1-0.1-1.7
		c0-0.1-1.6-0.1-4.6-0.1s-6.6,0.1-10.8,0.3c-0.1,2.5-0.2,5.2-0.2,8l0.1,17.5C261.2,115.5,262.8,115.6,264.5,115.6z"/>
	<path fill="#FFFFFF" d="M291.8,115.7c0.5,0,0.9-0.1,1.2-0.2v-0.7l0-3l0-4.1c0-2.9,0-5,0-6.4v-12c-0.7-0.1-1.5-0.2-2.5-0.2
		s-1.8,0.1-2.7,0.2c0,1.6-0.1,2.7-0.1,3.3l0.1,5.4c0,1.2-0.1,1.9-0.3,2.1c0,0-0.5-0.9-1.5-2.8c-0.9-1.9-1.5-3.1-1.7-3.6
		c-0.2-0.5-0.5-1.2-0.9-1.9s-0.7-1.4-1-2.1c0-0.1-0.4-0.2-1.2-0.3c-0.8-0.1-1.5-0.1-2.1-0.1c-0.6,0-1.1,0-1.5,0.1
		c-0.2,2.7-0.3,6-0.3,10l0.1,13.4v2.6l3.6,0.2c0.6,0,1.2-0.1,1.6-0.2c0-0.6,0-2.8,0-6.7c0-3.9,0.1-5.8,0.3-5.8
		c0.1,0,0.2,0.4,0.5,1.1l0.4,1.1c0.7,2,2.2,5.4,4.5,10.3L291.8,115.7z"/>
	<path fill="#FFFFFF" d="M311.6,107.7c0-2.9,0-5,0-6.4v-12c-0.7-0.1-1.5-0.2-2.5-0.2c-1,0-1.8,0.1-2.7,0.2c0,1.6-0.1,2.7-0.1,3.3
		l0.1,5.4c0,1.2-0.1,1.9-0.3,2.1c0,0-0.5-0.9-1.5-2.8c-0.9-1.9-1.5-3.1-1.7-3.6c-0.2-0.5-0.5-1.2-0.9-1.9s-0.7-1.4-1-2.1
		c0-0.1-0.4-0.2-1.2-0.3c-0.8-0.1-1.5-0.1-2.1-0.1c-0.6,0-1.1,0-1.5,0.1c-0.2,2.7-0.3,6-0.3,10l0.1,13.4v2.6l3.6,0.2
		c0.6,0,1.2-0.1,1.6-0.2c0-0.6,0-2.8,0-6.7c0-3.9,0.1-5.8,0.3-5.8c0.1,0,0.2,0.4,0.5,1.1l0.4,1.1c0.7,2,2.2,5.4,4.5,10.3l3.4,0.2
		c0.5,0,0.9-0.1,1.2-0.2v-0.7l0-3L311.6,107.7z"/>
	<path fill="#FFFFFF" d="M223.7,119.2c-0.1,0.4-0.4,0.9-0.5,1.3h0c0-0.5,0-1.1,0-1.7v-1.2h-0.5v3.5h0.6c0.3-0.5,0.6-1.3,0.7-1.6
		c0.1-0.4,0.3-0.8,0.4-1.2h0c0,0.5,0,0.9,0,1.7v1.1h0.5v-3.5h-0.6L223.7,119.2z"/>
	<polygon fill="#FFFFFF" points="227.7,119.2 226.7,119.2 226.7,117.7 226.1,117.7 226.1,121.1 226.7,121.1 226.7,119.6 
		227.7,119.6 227.7,121.1 228.3,121.1 228.3,117.7 227.7,117.7 	"/>
	<polygon fill="#FFFFFF" points="229.2,118.2 230,118.2 230,121.1 230.6,121.1 230.6,118.2 231.4,118.2 231.4,117.7 229.2,117.7 	
		"/>
	<path fill="#FFFFFF" d="M233.2,117.6c-0.7,0-1.2,0.7-1.2,1.8c0,1.1,0.4,1.7,1.3,1.7c0.3,0,0.6,0,0.8-0.2l-0.1-0.4
		c-0.1,0.1-0.3,0.1-0.6,0.1c-0.4,0-0.8-0.2-0.8-1.3h1.6c0-0.1,0-0.2,0-0.3C234.2,118.4,233.9,117.6,233.2,117.6z M232.6,119.1
		c0-0.5,0.2-1,0.6-1c0.3,0,0.5,0.3,0.5,1H232.6z"/>
	<path fill="#FFFFFF" d="M236.6,117.6c-0.3,0-0.5,0.1-0.7,0.5h0l0-0.5h-0.5c0,0.2,0,0.5,0,1.1v3.8h0.5v-1.7h0
		c0.1,0.2,0.3,0.4,0.6,0.4c0.5,0,1.1-0.5,1.1-1.8C237.6,118.3,237.2,117.6,236.6,117.6z M236.4,120.8c-0.1,0-0.4-0.1-0.5-0.6
		c0-0.1,0-0.2,0-0.3V119c0-0.1,0-0.2,0-0.3c0-0.3,0.3-0.6,0.5-0.6c0.4,0,0.6,0.6,0.6,1.3C237,120.1,236.9,120.8,236.4,120.8z"/>
	<polygon fill="#FFFFFF" points="240.3,119.2 239.3,119.2 239.3,117.7 238.8,117.7 238.8,121.1 239.3,121.1 239.3,119.6 
		240.3,119.6 240.3,121.1 240.9,121.1 240.9,117.7 240.3,117.7 	"/>
	<path fill="#FFFFFF" d="M243.2,117.6c-0.7,0-1.2,0.7-1.2,1.8c0,1.1,0.4,1.7,1.3,1.7c0.3,0,0.6,0,0.8-0.2l-0.1-0.4
		c-0.1,0.1-0.3,0.1-0.6,0.1c-0.4,0-0.8-0.2-0.8-1.3h1.6c0-0.1,0-0.2,0-0.3C244.2,118.4,243.9,117.6,243.2,117.6z M242.6,119.1
		c0-0.5,0.2-1,0.6-1c0.3,0,0.5,0.3,0.5,1H242.6z"/>
	<polygon fill="#FFFFFF" points="245,118.2 245.8,118.2 245.8,121.1 246.3,121.1 246.3,118.2 247.1,118.2 247.1,117.7 245,117.7 	
		"/>
	<path fill="#FFFFFF" d="M252.1,117.7l-0.4,1.5c-0.1,0.4-0.2,0.7-0.3,1.1h0c-0.1-0.4-0.2-0.7-0.3-1.1l-0.5-1.5h-0.6l-0.2,3.5h0.5
		l0-1.5c0-0.5,0-0.9,0-1.5h0c0.1,0.4,0.2,0.9,0.4,1.4l0.5,1.6h0.4l0.5-1.6c0.1-0.5,0.3-1,0.3-1.3h0c0,0.7,0,1,0,1.5l0.1,1.5h0.5
		l-0.2-3.5H252.1z"/>
	<path fill="#FFFFFF" d="M255.9,118.9c0-0.8-0.3-1.2-1-1.2c-0.3,0-0.7,0.1-0.8,0.2l0.1,0.4c0.2-0.1,0.4-0.2,0.6-0.2
		c0.4,0,0.5,0.3,0.5,0.8v0.1c-0.8,0-1.5,0.4-1.5,1.3c0,0.6,0.4,1,0.8,1c0.3,0,0.5-0.2,0.7-0.4h0l0,0.4h0.5c0-0.2,0-0.5,0-0.8
		L255.9,118.9L255.9,118.9L255.9,118.9z M255.4,120.1c0,0,0,0.1,0,0.2c-0.1,0.3-0.3,0.5-0.5,0.5c-0.2,0-0.4-0.2-0.4-0.6
		c0-0.8,0.7-0.8,1-0.8L255.4,120.1L255.4,120.1z"/>
	<polygon fill="#FFFFFF" points="257.3,121.1 257.8,121.1 257.8,118.2 258.9,118.2 258.9,117.7 257.3,117.7 	"/>
	<path fill="#FFFFFF" d="M261.6,118.9c0-0.8-0.3-1.2-1-1.2c-0.3,0-0.7,0.1-0.8,0.2l0.1,0.4c0.2-0.1,0.4-0.2,0.6-0.2
		c0.4,0,0.5,0.3,0.5,0.8v0.1c-0.8,0-1.5,0.4-1.5,1.3c0,0.6,0.4,1,0.8,1c0.3,0,0.5-0.2,0.7-0.4h0l0,0.4h0.5c0-0.2,0-0.5,0-0.8
		L261.6,118.9L261.6,118.9L261.6,118.9z M261.1,120.1c0,0,0,0.1,0,0.2c-0.1,0.3-0.3,0.5-0.5,0.5c-0.2,0-0.4-0.2-0.4-0.6
		c0-0.8,0.7-0.8,1-0.8L261.1,120.1L261.1,120.1z"/>
	<path fill="#FFFFFF" d="M263.9,119.3L263.9,119.3c0.4-0.1,0.7-0.4,0.7-0.8c0-0.5-0.4-0.9-1-0.9c-0.3,0-0.6,0.1-0.9,0.2l0.1,0.4
		c0.2-0.1,0.4-0.2,0.6-0.2c0.3,0,0.5,0.2,0.5,0.5c0,0.4-0.4,0.6-0.7,0.6h-0.2v0.4h0.2c0.4,0,0.8,0.2,0.8,0.6c0,0.3-0.3,0.6-0.8,0.6
		c-0.2,0-0.5-0.1-0.6-0.2l-0.1,0.4c0.2,0.1,0.5,0.2,0.8,0.2c0.6,0,1.3-0.3,1.3-1C264.7,119.7,264.4,119.4,263.9,119.3z"/>
	<path fill="#FFFFFF" d="M266.9,119.2c-0.1,0.4-0.4,0.9-0.5,1.3h0c0-0.5,0-1.1,0-1.7v-1.2h-0.5v3.5h0.6c0.3-0.5,0.6-1.3,0.7-1.6
		c0.1-0.4,0.3-0.8,0.4-1.2h0c0,0.5,0,0.9,0,1.7v1.1h0.5v-3.5h-0.6L266.9,119.2z"/>
	<polygon fill="#FFFFFF" points="270.9,119.2 269.9,119.2 269.9,117.7 269.3,117.7 269.3,121.1 269.9,121.1 269.9,119.6 
		270.9,119.6 270.9,121.1 271.5,121.1 271.5,117.7 270.9,117.7 	"/>
	<path fill="#FFFFFF" d="M275.7,117.6c-0.3,0-0.5,0.1-0.7,0.5h0l0-0.5h-0.5c0,0.2,0,0.5,0,1.1v3.8h0.5v-1.7h0
		c0.1,0.2,0.3,0.4,0.6,0.4c0.5,0,1.1-0.5,1.1-1.8C276.7,118.3,276.3,117.6,275.7,117.6z M275.5,120.8c-0.1,0-0.4-0.1-0.5-0.6
		c0-0.1,0-0.2,0-0.3V119c0-0.1,0-0.2,0-0.3c0-0.3,0.3-0.6,0.5-0.6c0.4,0,0.6,0.6,0.6,1.3C276.1,120.1,275.9,120.8,275.5,120.8z"/>
	<path fill="#FFFFFF" d="M278.8,119.7c0,0.2-0.1,0.5-0.1,0.7h0c0-0.2-0.1-0.5-0.1-0.7l-0.5-2h-0.6l0.9,3.2c0,0,0,0.1,0,0.1
		c0,0,0,0.1,0,0.2c0,0.2-0.2,0.4-0.3,0.6c-0.2,0.2-0.3,0.4-0.5,0.4l0.2,0.5c0.1,0,0.4-0.2,0.6-0.5c0.4-0.5,0.6-1.4,0.9-2.2l0.6-2.2
		h-0.5L278.8,119.7z"/>
	<path fill="#FFFFFF" d="M282.2,119.4c-0.1,0.1-0.3,0.2-0.5,0.2c-0.4,0-0.5-0.3-0.5-0.6v-1.3h-0.5v1.4c0,0.6,0.3,1,0.9,1
		c0.2,0,0.5-0.1,0.7-0.2h0v1.3h0.5v-3.5h-0.6V119.4z"/>
	<polygon fill="#FFFFFF" points="285.7,119.2 284.7,119.2 284.7,117.7 284.1,117.7 284.1,121.1 284.7,121.1 284.7,119.6 
		285.7,119.6 285.7,121.1 286.2,121.1 286.2,117.7 285.7,117.7 	"/>
	<path fill="#FFFFFF" d="M288.4,118.9c-0.1,0-0.3,0-0.3,0v-1.2h-0.5v3.4c0.2,0,0.5,0,0.7,0c0.3,0,0.7-0.1,1-0.3
		c0.2-0.2,0.4-0.5,0.4-0.9C289.7,119.3,289.1,118.9,288.4,118.9z M288.3,120.8c-0.1,0-0.2,0-0.2,0v-1.4c0.1,0,0.1,0,0.2,0
		c0.4,0,0.8,0.2,0.8,0.7C289.1,120.5,288.7,120.8,288.3,120.8z"/>
	<rect x="290" y="117.7" fill="#FFFFFF" width="0.5" height="3.5"/>
	<path fill="#FFFFFF" d="M293.3,117.7l-0.3,0.7c-0.1,0.2-0.1,0.4-0.2,0.6h0c-0.1-0.2-0.1-0.4-0.2-0.6l-0.3-0.7h-0.6l0.8,1.7
		l-0.8,1.7h0.5l0.3-0.8c0.1-0.2,0.2-0.4,0.2-0.6h0c0.1,0.2,0.1,0.4,0.2,0.6l0.3,0.8h0.6l-0.8-1.7l0.8-1.7H293.3z"/>
	<path fill="#FFFFFF" d="M297.7,117.6c-0.3,0-0.5,0.1-0.7,0.5h0l0-0.5h-0.5c0,0.2,0,0.5,0,1.1v3.8h0.5v-1.7h0
		c0.1,0.2,0.3,0.4,0.6,0.4c0.5,0,1.1-0.5,1.1-1.8C298.7,118.3,298.3,117.6,297.7,117.6z M297.6,120.8c-0.1,0-0.4-0.1-0.5-0.6
		c0-0.1,0-0.2,0-0.3V119c0-0.1,0-0.2,0-0.3c0-0.3,0.3-0.6,0.5-0.6c0.4,0,0.6,0.6,0.6,1.3C298.2,120.1,298,120.8,297.6,120.8z"/>
	<path fill="#FFFFFF" d="M301.7,118.9c0-0.8-0.3-1.2-1-1.2c-0.3,0-0.7,0.1-0.8,0.2l0.1,0.4c0.2-0.1,0.4-0.2,0.6-0.2
		c0.4,0,0.5,0.3,0.5,0.8v0.1c-0.8,0-1.5,0.4-1.5,1.3c0,0.6,0.4,1,0.8,1c0.3,0,0.5-0.2,0.7-0.4h0l0,0.4h0.5c0-0.2,0-0.5,0-0.8
		L301.7,118.9L301.7,118.9L301.7,118.9z M301.2,120.1c0,0,0,0.1,0,0.2c-0.1,0.3-0.3,0.5-0.5,0.5c-0.2,0-0.4-0.2-0.4-0.6
		c0-0.8,0.7-0.8,1-0.8L301.2,120.1L301.2,120.1z"/>
	<path fill="#FFFFFF" d="M304.2,117.7c-0.4,0-0.7,0.3-0.8,0.6h0c0-0.3,0.1-0.6,0.2-0.9c0.1-0.3,0.3-0.5,0.7-0.6
		c0.2-0.1,0.5-0.1,0.6-0.2l0-0.5c-0.2,0.1-0.5,0.1-0.8,0.2c-0.5,0.1-0.8,0.4-1,0.8c-0.2,0.5-0.3,1.2-0.3,2c0,0.9,0.2,2.1,1.2,2.1
		c0.7,0,1.1-0.6,1.1-1.8C305.2,118.2,304.8,117.7,304.2,117.7z M304.1,120.8c-0.5,0-0.6-1.1-0.6-1.5c0-0.2,0-0.5,0.1-0.7
		c0.1-0.2,0.2-0.4,0.5-0.4c0.5,0,0.6,0.8,0.6,1.3C304.6,119.9,304.6,120.8,304.1,120.8z"/>
	<path fill="#FFFFFF" d="M307.4,117.6c-0.6,0-1.2,0.5-1.2,1.8c0,1.2,0.5,1.8,1.1,1.8c0.5,0,1.1-0.5,1.1-1.8
		C308.5,118.2,308,117.6,307.4,117.6z M307.4,120.8c-0.5,0-0.6-0.8-0.6-1.4c0-0.5,0.1-1.3,0.6-1.3c0.5,0,0.6,0.8,0.6,1.3
		C307.9,119.9,307.8,120.8,307.4,120.8z"/>
	<polygon fill="#FFFFFF" points="309.2,118.2 310,118.2 310,121.1 310.6,121.1 310.6,118.2 311.4,118.2 311.4,117.7 309.2,117.7 	
		"/>
</g>
</svg>
