<?xml version="1.0" encoding="utf-8"?>
<!-- Generator: Adobe Illustrator 16.0.0, SVG Export Plug-In . SVG Version: 6.00 Build 0)  -->
<!DOCTYPE svg PUBLIC "-//W3C//DTD SVG 1.1//EN" "http://www.w3.org/Graphics/SVG/1.1/DTD/svg11.dtd">
<svg version="1.1" id="Layer_1" xmlns="http://www.w3.org/2000/svg" xmlns:xlink="http://www.w3.org/1999/xlink" x="0px" y="0px"
	 width="28.301px" height="47.6px" viewBox="0 0 28.301 47.6" enable-background="new 0 0 28.301 47.6" xml:space="preserve">
<g>
	<g>
		<defs>
			<path id="SVGID_1_" d="M14.3,0c-3.5,0-6.5,2.8-8.6,8.1C4.1,12,3.6,15.8,3.6,16c0,0.399,0.2,0.7,0.5,0.7c0,0,0.101,0,0,0
				c0.4,0,0.601-0.2,0.701-0.5C4.801,16.1,7,1.3,14.3,1.3c7.4,0,9.3,14.8,9.3,14.9c0,0.3,0.3,0.6,0.7,0.5c0.3,0,0.599-0.301,0.5-0.7
				c0-0.2-0.5-4-1.999-7.9C20.8,2.8,17.8,0,14.3,0z"/>
		</defs>
		<clipPath id="SVGID_2_">
			<use xlink:href="#SVGID_1_"  overflow="visible"/>
		</clipPath>
		
			<linearGradient id="SVGID_3_" gradientUnits="userSpaceOnUse" x1="22.1018" y1="9.2063" x2="23.1018" y2="9.2063" gradientTransform="matrix(21.2489 0 0 -21.2489 -466.0331 204.0162)">
			<stop  offset="0" style="stop-color:#006A9F"/>
			<stop  offset="1" style="stop-color:#00E7F4"/>
		</linearGradient>
		<rect x="3.6" y="0" clip-path="url(#SVGID_2_)" fill="url(#SVGID_3_)" width="21.299" height="16.8"/>
	</g>
</g>
<g>
	<g>
		<defs>
			<path id="SVGID_4_" d="M24.701,13.7c0.099,0.5,0.197,1.1,0.299,1.6c0.3,0.2,0.5,0.5,0.5,0.9c0,0.699-0.602,1.3-1.3,1.3
				c-0.7,0-1.301-0.601-1.301-1.3c0-0.301,0.1-0.5,0.2-0.601c-0.101-0.5-0.2-1.1-0.399-1.799H18C18.4,19.5,19,30.1,19,33.1
				C18.4,33.4,17.9,33.501,17.4,33.501c-1.698,0-2.8-0.604-3.4-1.901C13.5,30.4,13.2,28.2,13.2,24.8V23
				c0.1-4.3,0.199-7.4,0.199-9.199H5.6C5.4,14.5,5.3,15.2,5.2,15.7C5.3,15.9,5.4,16.1,5.4,16.3c0,0.7-0.599,1.3-1.3,1.3
				c-0.7,0-1.3-0.6-1.3-1.3c0-0.4,0.2-0.7,0.5-0.9C3.4,15,3.5,14.3,3.6,13.801H0C0.1,17.6,0.4,22,0.8,26.8
				c0.4,5.2,0.9,8.7,1.401,10.599C3,40.801,4.4,43.2,6.4,44.8c2.4,1.899,5.801,2.8,10.301,2.8c3.698,0,8.001-0.7,11.5-2.1
				c0.101-8,0.101-31.8,0.101-31.8H24.701z"/>
		</defs>
		<clipPath id="SVGID_5_">
			<use xlink:href="#SVGID_4_"  overflow="visible"/>
		</clipPath>
		
			<linearGradient id="SVGID_6_" gradientUnits="userSpaceOnUse" x1="8.1677" y1="15.0349" x2="9.1681" y2="15.0349" gradientTransform="matrix(26.4982 -26.4981 -26.4981 -26.4982 185.2092 656.3926)">
			<stop  offset="0" style="stop-color:#862274"/>
			<stop  offset="0.6886" style="stop-color:#FF4E20"/>
			<stop  offset="1" style="stop-color:#FF4E20"/>
		</linearGradient>
		<polygon clip-path="url(#SVGID_5_)" fill="url(#SVGID_6_)" points="14.15,61.75 45.251,30.65 14.15,-0.45 -16.95,30.65 		"/>
	</g>
</g>
</svg>
